<?xml version="1.0" encoding="UTF-8"?>
<!DOCTYPE svg PUBLIC "-//W3C//DTD SVG 1.1//EN" "http://www.w3.org/Graphics/SVG/1.1/DTD/svg11.dtd">
<!-- Creator: CorelDRAW X8 -->
<svg xmlns="http://www.w3.org/2000/svg" xml:space="preserve" width="297mm" height="210mm" version="1.1" style="shape-rendering:geometricPrecision; text-rendering:geometricPrecision; image-rendering:optimizeQuality; fill-rule:evenodd; clip-rule:evenodd"
viewBox="0 0 29700 21000"
 xmlns:xlink="http://www.w3.org/1999/xlink">
 <defs>
  <style type="text/css">
   <![CDATA[
    .fil0 {fill:url(#id0);fill-rule:nonzero}
   ]]>
  </style>
  <linearGradient id="id0" gradientUnits="userSpaceOnUse" x1="4477.57" y1="8952.39" x2="23260.3" y2="8950.95">
   <stop offset="0" style="stop-opacity:1; stop-color:red"/>
   <stop offset="0.580392" style="stop-opacity:1; stop-color:#FF7F7F"/>
   <stop offset="1" style="stop-opacity:1; stop-color:white"/>
  </linearGradient>
 </defs>
 <g id="Слой_x0020_1">
  <metadata id="CorelCorpID_0Corel-Layer"/>
  <path class="fil0" d="M19750 9182c-58,236 -116,471 -174,707 -48,192 -41,190 -259,190 -63,0 -126,0 -189,0 -224,0 -221,24 -281,-183 -142,-492 -291,-982 -437,-1472 -77,-251 -51,-212 166,-224 23,0 47,0 70,0 227,0 210,-5 269,209l225 803c83,297 83,281 146,18 71,-293 142,-586 213,-880 39,-153 38,-150 205,-150 72,0 144,0 215,0 168,0 167,-3 206,150 71,294 141,587 212,880 63,263 64,279 147,-18l224 -803c60,-214 43,-209 269,-209 24,0 47,0 71,0 216,12 243,-27 165,224 -145,490 -294,980 -436,1472 -60,207 -58,183 -282,183 -63,0 -125,0 -188,0 -218,0 -211,2 -260,-190 -58,-236 -115,-471 -173,-707 -73,-294 -52,-294 -124,0zm-10404 -2591c-1664,-34 -2736,543 -2745,1002 -11,605 2325,1099 3607,773 816,-157 980,-642 419,-728 -827,-127 -1702,363 -2671,-66 -368,-162 -516,-389 -25,-214 1248,307 1711,-319 2984,-122 415,100 703,387 574,791 -123,386 -551,636 -1116,771 -1637,392 -4432,-184 -4352,-1246 54,-700 1314,-1453 3206,-1453 2333,0 3377,652 3377,1967 1,2013 -1265,4109 -3251,4109 -3008,0 -2917,-3490 -4085,-3498 -250,-2 -565,326 -284,833 122,221 329,366 557,502 70,78 56,131 -211,72 -259,-55 -554,-262 -692,-434 -579,-723 -119,-1584 630,-1552 1747,74 1362,3546 4085,3546 1677,0 2732,-1943 2696,-3584 -17,-1026 -1039,-1434 -2703,-1469zm13768 3483c-90,0 -152,0 -242,0 -154,0 -161,2 -161,-121 0,-13 0,-26 0,-40 0,-59 12,-119 -70,-19 -122,151 -288,226 -497,226 -182,0 -326,-51 -430,-155 -105,-103 -157,-242 -157,-414 0,-365 216,-575 648,-631l369 -49c125,-17 159,-22 125,-141 -36,-125 -145,-186 -318,-186 -146,0 -270,21 -407,78 -235,97 -232,150 -232,-77 0,-24 0,-49 0,-74 0,-169 -2,-180 206,-242 43,-13 75,-21 126,-32 139,-32 267,-48 383,-48 535,0 803,268 803,802 0,322 0,643 0,965 0,157 6,158 -146,158zm-399 -763c-3,-114 24,-130 -128,-111l-213 28c-189,24 -283,109 -283,255 0,66 23,121 69,163 46,42 108,63 186,63 109,0 198,-38 267,-113 68,-75 102,-170 102,-285zm-7020 768c-101,0 -196,0 -297,0 -143,0 -174,3 -262,-129 -149,-224 -291,-453 -437,-679 -97,-152 -87,-100 -87,78 0,202 0,324 0,526 0,197 9,204 -220,204 -50,0 -73,0 -122,0 -220,0 -211,-10 -211,-200 0,-777 0,-679 0,-1455 0,-260 -27,-252 222,-252 53,0 79,0 132,0 231,0 199,6 199,256 0,464 0,-26 0,439 0,171 -12,232 81,87 137,-213 275,-426 412,-639 90,-127 161,-115 302,-115 85,0 143,0 229,0 187,0 179,-2 75,146 -147,211 -290,414 -441,628 -77,110 -75,109 0,221 169,253 327,488 497,741 97,146 104,143 -72,143zm2126 0c-90,0 -152,0 -241,0 -155,0 -161,2 -161,-121 0,-13 0,-26 0,-40 0,-59 11,-119 -70,-19 -123,151 -289,226 -498,226 -182,0 -326,-51 -430,-155 -105,-103 -157,-242 -157,-414 0,-364 216,-575 648,-631l370 -49c124,-17 158,-22 124,-141 -36,-125 -145,-186 -318,-186 -146,0 -270,21 -407,78 -234,97 -231,150 -231,-77 0,-24 0,-49 0,-74 0,-169 -3,-180 205,-242 43,-13 75,-21 126,-32 140,-32 267,-48 383,-48 535,0 803,268 803,802 0,322 0,643 0,965 0,157 7,158 -146,158zm-399 -763c-2,-114 24,-130 -128,-110l-213 27c-189,24 -283,110 -283,256 0,65 23,120 69,162 46,42 108,63 186,63 109,0 198,-38 267,-113 68,-75 102,-170 102,-285z"/>
 </g>
</svg>
